name analog
datacolumns 19
datarows 46
range 0.20800000000000002 0.2305
endheader
time	ground_force_vx	ground_force_vy	ground_force_vz	ground_force_px	ground_force_py	ground_force_pz	l_ground_force_vx	l_ground_force_vy	l_ground_force_vz	l_ground_force_px	l_ground_force_py	l_ground_force_pz	ground_torque_x	ground_torque_y	ground_torque_z	l_ground_torque_x	l_ground_torque_y	l_ground_torque_z
0.20800000000000002	-0.0	-0.0	-0.0	8.07241153717041	39.0825424194336	-389.2993774414063	-2.551787614822388	-34.534854888916016	-374.553466796875	-0.0	-0.0	-0.0	-0.0	-0.0	-0.0	111088.015625	695.1970825195312	-8702.875
0.2085	-0.0	-0.0	-0.0	7.8263654708862305	39.26318359375	-389.8247985839844	-2.4839019775390625	-34.666900634765625	-373.5972900390625	-0.0	-0.0	-0.0	-0.0	-0.0	-0.0	111110.9375	873.9663696289062	-8695.2529296875
0.209	-0.0	-0.0	-0.0	8.385787963867188	39.41722869873047	-391.248779296875	-2.416976928710937	-34.025543212890625	-372.1956176757813	-0.0	-0.0	-0.0	-0.0	-0.0	-0.0	110743.21875	818.158447265625	-8902.2880859375
0.2095	-0.0	-0.0	-0.0	8.496560096740723	39.908878326416016	-391.9326477050781	-2.617848873138428	-34.048885345458984	-372.6303405761719	-0.0	-0.0	-0.0	-0.0	-0.0	-0.0	110613.9609375	1025.500732421875	-8976.3193359375
0.21	-0.0	-0.0	-0.0	8.182659149169922	40.22249984741211	-393.44244384765625	-3.018172025680542	-34.09416961669922	-370.5194091796875	-0.0	-0.0	-0.0	-0.0	-0.0	-0.0	110598.828125	1382.8404541015625	-9362.228515625
0.2105	-0.0	-0.0	-0.0	7.936236381530762	40.2690315246582	-393.7108154296875	-3.7281479835510254	-33.76039505004883	-372.2897033691406	-0.0	-0.0	-0.0	-0.0	-0.0	-0.0	110531.734375	1297.2059326171875	-9599.9365234375
0.211	-0.0	-0.0	-0.0	8.457313537597656	40.08363342285156	-392.6368408203125	-4.392428398132324	-33.97991180419922	-372.8841552734375	-0.0	-0.0	-0.0	-0.0	-0.0	-0.0	110496.1875	1392.57763671875	-9911.5048828125
0.2115	-0.0	-0.0	-0.0	8.207366943359375	40.28301239013672	-393.45806884765625	-4.36832332611084	-33.607765197753906	-372.01568603515625	-0.0	-0.0	-0.0	-0.0	-0.0	-0.0	110573.1328125	1788.511962890625	-10155.83203125
0.212	-0.0	-0.0	-0.0	7.782559871673584	40.7580451965332	-391.84478759765625	-4.946381568908691	-33.367279052734375	-372.5447998046875	-0.0	-0.0	-0.0	-0.0	-0.0	-0.0	110145.96875	1624.4512939453125	-10431.2353515625
0.2125	-0.0	-0.0	-0.0	7.395623207092285	40.96205520629883	-390.97021484375	-5.173030376434326	-32.82798385620117	-373.4239807128906	-0.0	-0.0	-0.0	-0.0	-0.0	-0.0	110531.1015625	1612.141845703125	-10675.703125
0.213	-0.0	-0.0	-0.0	7.578177452087402	40.77951431274414	-388.9996948242188	-4.857791900634766	-33.32197570800781	-372.8801574707031	-0.0	-0.0	-0.0	-0.0	-0.0	-0.0	110307.2578125	1645.7021484375	-10921.1630859375
0.2135	-0.0	-0.0	-0.0	7.331424236297607	40.52836990356445	-390.3472900390625	-4.705372333526611	-33.276119232177734	-372.0137939453125	-0.0	-0.0	-0.0	-0.0	-0.0	-0.0	110407.125	1681.8790283203125	-10935.2724609375
0.214	-0.0	-0.0	-0.0	7.063486099243164	40.297630310058594	-388.58111572265625	-4.499114036560059	-33.67559051513672	-372.8105163574219	-0.0	-0.0	-0.0	-0.0	-0.0	-0.0	110508.71875	1690.93994140625	-11062.26953125
0.2145	-0.0	-0.0	-0.0	6.968461990356445	40.23421096801758	-388.8726806640625	-4.169406890869141	-33.82720947265625	-372.8939208984375	-0.0	-0.0	-0.0	-0.0	-0.0	-0.0	110237.21875	1387.7144775390625	-11008.4384765625
0.215	-0.0	-0.0	-0.0	7.231697082519531	40.37042999267578	-387.5814514160156	-3.7258529663085938	-33.654972076416016	-372.46185302734375	-0.0	-0.0	-0.0	-0.0	-0.0	-0.0	110129.9296875	1694.8250732421875	-11025.0849609375
0.2155	-0.0	-0.0	-0.0	6.738314151763916	40.67927932739258	-387.87408447265625	-3.3033206462860107	-33.313602447509766	-370.8817443847656	-0.0	-0.0	-0.0	-0.0	-0.0	-0.0	110078.640625	1650.645751953125	-10925.6328125
0.216	-0.0	-0.0	-0.0	6.31317663192749	41.15749740600586	-387.8738098144531	-2.754948854446411	-33.52052688598633	-372.3605346679688	-0.0	-0.0	-0.0	-0.0	-0.0	-0.0	110336.078125	1509.669921875	-11083.80859375
0.2165	-0.0	-0.0	-0.0	5.750888824462891	41.30875778198242	-387.9555358886719	-3.4179441928863525	-33.69215774536133	-374.33111572265625	-0.0	-0.0	-0.0	-0.0	-0.0	-0.0	110661.453125	1654.63134765625	-11178.6376953125
0.217	-0.0	-0.0	-0.0	5.194844722747803	41.85672378540039	-388.3898620605469	-3.5330636501312256	-34.253517150878906	-373.0792541503906	-0.0	-0.0	-0.0	-0.0	-0.0	-0.0	110769.0546875	1908.1265869140625	-11313.212890625
0.2175	-0.0	-0.0	-0.0	5.0575480461120605	41.30165481567383	-386.6505432128906	-3.88250732421875	-34.419166564941406	-374.8031921386719	-0.0	-0.0	-0.0	-0.0	-0.0	-0.0	110966.0625	1642.9981689453125	-11639.806640625
0.218	-0.0	-0.0	-0.0	4.646054744720459	41.575782775878906	-384.36920166015625	-4.524250030517578	-34.118648529052734	-374.20904541015625	-0.0	-0.0	-0.0	-0.0	-0.0	-0.0	111294.5234375	1706.38818359375	-11656.0048828125
0.2185	-0.0	-0.0	-0.0	4.544083118438721	41.93955612182617	-384.2890930175781	-3.965177059173584	-34.24827194213867	-375.9551086425781	-0.0	-0.0	-0.0	-0.0	-0.0	-0.0	111520.8828125	1706.6357421875	-11728.81640625
0.219	-0.0	-0.0	-0.0	4.735753536224365	42.11791229248047	-384.259765625	-3.7876088619232178	-34.295654296875	-376.6535949707031	-0.0	-0.0	-0.0	-0.0	-0.0	-0.0	111864.734375	1434.060546875	-11840.474609375
0.2195	-0.0	-0.0	-0.0	4.221076965332031	41.822486877441406	-381.849609375	-3.207500457763672	-34.13304138183594	-376.6277770996094	-0.0	-0.0	-0.0	-0.0	-0.0	-0.0	112104.3828125	1448.5753173828125	-11646.1181640625
0.22	-0.0	-0.0	-0.0	4.310506343841553	41.98042297363281	-381.51458740234375	-2.8182930946350098	-34.05144500732422	-380.3066101074219	-0.0	-0.0	-0.0	-0.0	-0.0	-0.0	113062.1875	1654.57568359375	-11657.2509765625
0.2205	-0.0	-0.0	-0.0	4.431977272033691	41.405235290527344	-381.53326416015625	-2.5930163860321045	-34.57440948486328	-383.7979431152344	-0.0	-0.0	-0.0	-0.0	-0.0	-0.0	113961.71875	1511.3721923828125	-11606.892578125
0.221	-0.0	-0.0	-0.0	5.093617916107178	41.42551040649414	-378.9620971679688	-2.661323547363281	-34.66994094848633	-386.9690856933594	-0.0	-0.0	-0.0	-0.0	-0.0	-0.0	114619.53125	1387.260009765625	-11661.8681640625
0.2215	-0.0	-0.0	-0.0	4.728157043457031	40.93974304199219	-380.6484069824219	-2.4636197090148926	-34.97538757324219	-387.2389831542969	-0.0	-0.0	-0.0	-0.0	-0.0	-0.0	115236.4140625	1532.781005859375	-11727.9326171875
0.222	-0.0	-0.0	-0.0	5.234323501586914	40.148719787597656	-379.3152465820313	-2.641101837158203	-34.505855560302734	-388.4465942382813	-0.0	-0.0	-0.0	-0.0	-0.0	-0.0	115607.5859375	1716.1812744140625	-11629.5693359375
0.2225	-0.0	-0.0	-0.0	5.363245487213135	40.107418060302734	-378.17669677734375	-2.8185958862304688	-34.48558044433594	-388.68505859375	-0.0	-0.0	-0.0	-0.0	-0.0	-0.0	115834.8828125	1830.8065185546875	-11718.6083984375
0.223	-0.0	-0.0	-0.0	5.4912190437316895	39.70282745361328	-378.9998474121094	-2.5525119304656982	-34.4737434387207	-391.0962524414063	-0.0	-0.0	-0.0	-0.0	-0.0	-0.0	116304.3203125	1814.2587890625	-11816.859375
0.2235	-0.0	-0.0	-0.0	6.056248664855957	39.38558197021485	-377.0400695800781	-2.6126930713653564	-34.66200637817383	-392.0184020996094	-0.0	-0.0	-0.0	-0.0	-0.0	-0.0	116471.1640625	2178.78759765625	-11675.33203125
0.224	-0.0	-0.0	-0.0	6.135364055633545	39.64326858520508	-377.1178588867188	-2.6014204025268555	-34.73030471801758	-394.4627380371094	-0.0	-0.0	-0.0	-0.0	-0.0	-0.0	116587.265625	1953.0921630859373	-11727.9677734375
0.2245	-0.0	-0.0	-0.0	6.769722938537598	39.603885650634766	-378.1369018554688	-2.386157274246216	-34.78975296020508	-394.0782165527344	-0.0	-0.0	-0.0	-0.0	-0.0	-0.0	117169.5078125	2094.399658203125	-11684.84375
0.225	-0.0	-0.0	-0.0	7.0083088874816895	39.03911590576172	-376.6454772949219	-2.4839019775390625	-34.906829833984375	-396.208984375	-0.0	-0.0	-0.0	-0.0	-0.0	-0.0	117522.2421875	2245.019287109375	-11615.9091796875
0.2255	-0.0	-0.0	-0.0	6.82806921005249	39.12825012207031	-377.5493774414063	-2.277163028717041	-35.348384857177734	-398.07330322265625	-0.0	-0.0	-0.0	-0.0	-0.0	-0.0	118611.234375	2243.909912109375	-11721.2744140625
0.226	-0.0	-0.0	-0.0	7.186950206756592	39.197845458984375	-377.39459228515625	-2.079822540283203	-35.436649322509766	-401.3305969238281	-0.0	-0.0	-0.0	-0.0	-0.0	-0.0	119564.6640625	2326.764404296875	-11602.51953125
0.2265	-0.0	-0.0	-0.0	7.454727172851562	39.24813079833984	-376.8877258300781	-2.286815643310547	-35.8881950378418	-405.2876586914063	-0.0	-0.0	-0.0	-0.0	-0.0	-0.0	120509.4296875	2523.174560546875	-11728.1845703125
0.227	-0.0	-0.0	-0.0	7.733952045440674	39.08942794799805	-377.4724426269531	-1.793831706047058	-35.70149230957031	-407.6143798828125	-0.0	-0.0	-0.0	-0.0	-0.0	-0.0	121131.734375	2557.776611328125	-11648.6337890625
0.2275	-0.0	-0.0	-0.0	7.327001094818115	38.75999450683594	-376.043701171875	-1.9621262550354004	-36.015777587890625	-409.4779052734375	-0.0	-0.0	-0.0	-0.0	-0.0	-0.0	122169.890625	2548.2099609375	-11562.93359375
0.228	-0.0	-0.0	-0.0	6.818588733673096	38.84883880615234	-376.1654052734375	-1.8844839334487915	-36.18383026123047	-412.34808349609375	-0.0	-0.0	-0.0	-0.0	-0.0	-0.0	123053.953125	2391.301513671875	-11592.5361328125
0.2285	-0.0	-0.0	-0.0	6.633050441741943	38.58645248413086	-375.4302978515625	-1.7049391269683838	-36.054595947265625	-415.839599609375	-0.0	-0.0	-0.0	-0.0	-0.0	-0.0	123952.7265625	2434.640625	-11677.666015625
0.229	-0.0	-0.0	-0.0	6.493194103240967	39.032470703125	-376.9189147949219	-1.3306617736816406	-36.44636535644531	-418.4042053222656	-0.0	-0.0	-0.0	-0.0	-0.0	-0.0	124525.0625	2670.52734375	-11657.9306640625
0.2295	-0.0	-0.0	-0.0	5.989818096160889	38.52344131469727	-377.59967041015625	-1.2727224826812744	-36.28098678588867	-419.6802368164063	-0.0	-0.0	-0.0	-0.0	-0.0	-0.0	125205.703125	2686.815673828125	-11642.255859375
0.23	-0.0	-0.0	-0.0	5.868830680847168	38.892852783203125	-379.0375671386719	-0.7983970642089844	-36.05441665649414	-422.1243286132813	-0.0	-0.0	-0.0	-0.0	-0.0	-0.0	126274.0859375	2622.6494140625	-11541.2119140625
0.2305	-0.0	-0.0	-0.0	5.817673206329346	38.59919738769531	-377.4968872070313	-0.7600375413894653	-36.47686004638672	-425.7384948730469	-0.0	-0.0	-0.0	-0.0	-0.0	-0.0	126988.734375	2646.12939453125	-11561.9453125
